<?xml version="1.0" encoding="utf-8"?>
<!-- Generator: Adobe Illustrator 25.1.0, SVG Export Plug-In . SVG Version: 6.00 Build 0)  -->
<svg version="1.1" id="Layer_1" xmlns="http://www.w3.org/2000/svg" xmlns:xlink="http://www.w3.org/1999/xlink" x="0px" y="0px"
	 viewBox="0 0 2000 2000" style="enable-background:new 0 0 2000 2000;" xml:space="preserve">
<style type="text/css">
	.st0{display:none;fill:#FFFFFF;}
	.st1{fill:#FF45B1;}
</style>
<circle class="st0" cx="1000" cy="1000" r="1000"/>
<g>
	<g>
		<path class="st1" d="M1322.13,954.3c138.74-53.51,257.67-168.47,257.67-325.05c0-246.82-201.81-300.33-406.42-311.93
			c-34.2-1.94-68.5-2.72-101.92-3.02h-680.9v55.29c73.59,5.9,126.56,13.36,164.64,27.95c69.16,26.5,89.29,76.51,94.91,183.31
			c1.71,32.39,2.08,70.02,2.08,113.8v527.23c0,358.76-25.76,344.89-261.63,384.52v55.49h830.49v-55.49
			c-319.11-23.79-307.22-114.97-307.22-384.52v-198.21c188.3,27.75,174.43,15.86,267.58,194.24
			c59.46,111,174.43,297.31,275.51,368.66c154.6,107.03,358.76,89.19,535.15,99.11l7.94-55.51
			C1672.96,1552.89,1468.8,1243.7,1322.13,954.3z M913.82,954.3V387.44c39.4,0,79.38,2.7,117.75,9.13
			c135.4,22.64,250.91,91.46,250.91,250.52C1282.48,861.15,1098.15,940.43,913.82,954.3z"/>
	</g>
	<g>
		<path class="st1" d="M913.82,623.21V387.44c39.4,0,79.38,2.7,117.75,9.13c35.78-10.11,82.04-16.73,141.8-26.77v-52.48
			c-34.2-1.94-68.5-2.72-101.92-3.02H0l47.56,358.76h63.43c9.92-259.66,166.49-275.52,388.49-275.52h150.63v529.22H479.65
			c-170.46,0-261.63-11.89-309.2-192.27h-53.51c9.91,172.44,13.87,346.87,11.89,519.31h51.54
			c35.68-208.12,120.9-208.12,307.22-208.12h162.52v176.41c0,269.55,11.9,360.73-313.16,384.52v55.49h836.42v-55.49
			c-235.86-39.65-261.63-25.76-261.63-384.52V754.32C911.74,703.57,912.26,660.26,913.82,623.21z"/>
	</g>
</g>
</svg>
